# xmcd
#
# Track frame offsets: 
#        150
#        29325
#        53725
#        71497
#        108620
#        125760
#        153662
#        193635
#        211828
#        232330
#        261533
#        300171
#
# Disc length: 4586 seconds
#
# Revision: 1
# Processed by: cddbd v1.5.2PL0 Copyright (c) Steve Scherf et al.
# Submitted via: ExactAudioCopy v0.99pb4
#
DISCID=b011e80c
DTITLE=Bruce Springsteen - Bridegport, 7-20-05(Scoper Remaster-Disc 2)
DYEAR=2005
DGENRE=Rock and Roll
TTITLE0=Lost In The Flood
TTITLE1=The Rising
TTITLE2=Spare Parts
TTITLE3=Jesus Was An Only Son
TTITLE4=If I Should Fall Behind
TTITLE5=The Hitter
TTITLE6=Matamoros Banks
TTITLE7=Ramrod
TTITLE8=Bobby Jean
TTITLE9=Land Of Hope And Dreams
TTITLE10=The Promised Land
TTITLE11=Dream Baby Dream
EXTD=
EXTT0=
EXTT1=
EXTT2=
EXTT3=
EXTT4=
EXTT5=
EXTT6=
EXTT7=
EXTT8=
EXTT9=
EXTT10=
EXTT11=
PLAYORDER=
